<svg width="45" height="45" viewBox="0 0 45 45" fill="none" xmlns="http://www.w3.org/2000/svg">
 <path d="M23.4294 25.4925C21.7483 25.4847 20.078 25.2213 18.4761 24.7114C15.9164 23.855 14.0153 21.6881 13.4992 19.0388C12.9345 16.319 13.9636 13.4431 16.322 11.1488C16.575 10.9024 16.838 10.6663 17.1108 10.4406C19.5256 8.41901 22.7811 7.71646 25.8146 8.5623C28.7514 9.49966 30.7807 12.1836 30.8822 15.2647C30.9921 17.0382 30.4141 18.7859 29.2683 20.1441C28.3845 21.2573 26.9527 21.7831 25.5585 21.5064C24.9884 21.3881 24.4909 21.0428 24.1807 20.55C23.9024 20.0713 23.831 19.4999 23.983 18.9675C24.6389 16.4883 25.3057 12.7207 25.3123 12.6825C25.3589 12.4186 25.5427 12.1995 25.7946 12.1079C26.0465 12.0163 26.3281 12.066 26.5334 12.2383C26.7386 12.4106 26.8364 12.6793 26.7898 12.9433C26.762 13.1 26.1054 16.8112 25.4334 19.3509C25.3854 19.4916 25.3974 19.6459 25.4667 19.7775C25.5704 19.921 25.7268 20.0174 25.9017 20.0456C26.7551 20.188 27.6172 19.8456 28.1403 19.1564C29.0301 18.0919 29.476 16.7257 29.3853 15.3413C29.312 12.8887 27.7037 10.7476 25.3688 9.99375C22.8201 9.29273 20.0896 9.89161 18.0682 11.595C17.8272 11.795 17.5929 12.0044 17.368 12.2234C16.2021 13.3576 14.3402 15.7109 14.9676 18.7334C15.3891 20.845 16.8972 22.5756 18.9314 23.2818C22.4489 24.4039 27.5033 24.539 30.1664 21.2277C30.428 20.9126 30.8941 20.8657 31.2133 21.1223C31.5325 21.3789 31.5868 21.8441 31.3353 22.1674C29.3661 24.6164 26.3694 25.4925 23.4294 25.4925Z" fill="#DF3F01"></path>
 <path d="M20.8605 21.6039C20.0678 21.6175 19.2945 21.3576 18.671 20.8678C17.2314 19.7157 17.1918 17.7143 17.5954 16.3514C17.7313 15.8974 17.9138 15.4588 18.14 15.0425C18.7027 13.907 19.6025 12.9732 20.7163 12.3688C22.1033 11.6491 23.798 11.922 24.8889 13.0408C25.4301 13.6339 25.8378 14.3362 26.0844 15.1004C26.215 15.4881 26.0107 15.909 25.6252 16.0463C25.2398 16.1836 24.8154 15.9866 24.6715 15.6035C24.4937 15.039 24.1981 14.5186 23.8044 14.0768C23.1683 13.4263 22.1773 13.2783 21.379 13.7146C20.5437 14.1856 19.8725 14.9008 19.4553 15.7643C19.2799 16.0878 19.1383 16.4284 19.0326 16.7809C18.7412 17.7668 18.8052 19.0534 19.6095 19.6974C20.4887 20.4035 21.972 20.105 22.8065 19.385C23.4284 18.8251 23.9628 18.1751 24.3918 17.4566C24.5307 17.2238 24.7844 17.0841 25.0554 17.0912C25.3263 17.0982 25.5724 17.251 25.699 17.4907C25.8256 17.7304 25.813 18.0197 25.666 18.2475C25.1579 19.0941 24.5253 19.8595 23.7895 20.518C22.9694 21.2099 21.9335 21.594 20.8605 21.6039Z" fill="#DF3F01"></path>
 <path d="M42.75 45H2.25C1.00792 44.9986 0.00136403 43.9921 0 42.75V15C1.179e-05 14.7092 0.168163 14.4446 0.431462 14.321C0.694762 14.1975 1.00574 14.2374 1.2294 14.4233L19.6322 29.7176C21.2974 31.0928 23.7043 31.0924 25.3689 29.7166L43.77 14.4233C43.9936 14.237 44.3049 14.1969 44.5684 14.3205C44.8319 14.4441 45.0002 14.7089 45 15V42.75C44.9986 43.9921 43.9921 44.9986 42.75 45ZM1.5 16.5985V42.75C1.50054 43.164 1.83601 43.4995 2.25 43.5H42.75C43.1641 43.4996 43.4996 43.1641 43.5 42.75V16.5985L26.3266 30.871C24.1061 32.706 20.8956 32.7065 18.6746 30.8721L1.5 16.5985Z" fill="#DF3F01"></path>
 <path d="M0.750734 15.75C0.424057 15.7503 0.134763 15.5391 0.0355086 15.2279C-0.0637457 14.9166 0.0498726 14.577 0.316409 14.3881L7.06641 9.60308C7.40436 9.36885 7.86788 9.4504 8.1056 9.7859C8.34331 10.1214 8.26657 10.5857 7.93356 10.8269L1.18356 15.6119C1.05717 15.7019 0.905862 15.7501 0.750734 15.75Z" fill="#DF3F01"></path>
 <path d="M44.2508 15.75C44.0956 15.7501 43.9443 15.7019 43.8179 15.6119L37.0679 10.8269C36.7349 10.5857 36.6582 10.1214 36.8959 9.7859C37.1336 9.4504 37.5971 9.36885 37.9351 9.60308L44.6851 14.3881C44.9516 14.577 45.0652 14.9166 44.966 15.2279C44.8667 15.5391 44.5774 15.7503 44.2508 15.75Z" fill="#DF3F01"></path>
 <path d="M29.4297 5.25C29.2744 5.25008 29.123 5.20182 28.9964 5.11192L25.4114 2.56942C23.7472 1.16316 21.3154 1.14851 19.6344 2.53462L16.0044 5.112C15.7858 5.26703 15.5011 5.29366 15.2575 5.18185C15.014 5.07003 14.8485 4.83677 14.8236 4.56992C14.7986 4.30307 14.9179 4.04318 15.1365 3.88815L18.7215 1.34565C20.9368 -0.465628 24.1254 -0.451221 26.3241 1.38L29.8641 3.88785C30.1309 4.07668 30.2447 4.41653 30.1454 4.72791C30.046 5.03929 29.7565 5.2505 29.4297 5.25Z" fill="#DF3F01"></path>
 <path d="M1.23897 44.595C0.9229 44.5953 0.640577 44.3974 0.533052 44.1001C0.425527 43.8029 0.515881 43.4702 0.758974 43.2682L17.874 29.0482C18.0796 28.8733 18.3634 28.8224 18.617 28.915C18.8706 29.0076 19.0549 29.2293 19.0995 29.4955C19.1441 29.7618 19.0422 30.0315 18.8327 30.2017L1.7177 44.4217C1.58332 44.5337 1.41392 44.595 1.23897 44.595Z" fill="#DF3F01"></path>
 <path d="M43.761 44.595C43.5862 44.5951 43.4169 44.5338 43.2828 44.4217L26.1678 30.2017C25.9582 30.0315 25.8563 29.7618 25.901 29.4956C25.9456 29.2294 26.1299 29.0077 26.3835 28.9151C26.6371 28.8225 26.9208 28.8734 27.1265 29.0482L44.241 43.2682C44.4841 43.4703 44.5745 43.803 44.467 44.1002C44.3594 44.3974 44.0771 44.5953 43.761 44.595Z" fill="#DF3F01"></path>
 <path d="M37.5 21.36C37.0858 21.36 36.75 21.0242 36.75 20.61V5.25584C36.7478 5.27159 36.7178 5.25037 36.6675 5.24999H8.3325C8.29935 5.24796 8.26681 5.25961 8.2425 5.28224L8.25 20.61C8.25 21.0242 7.91421 21.36 7.5 21.36C7.08579 21.36 6.75 21.0242 6.75 20.61V5.24999C6.7742 4.39941 7.48185 3.72866 8.3325 3.74999H36.6675C37.5181 3.72874 38.2257 4.39945 38.25 5.24999V20.61C38.25 21.0242 37.9142 21.36 37.5 21.36Z" fill="#DF3F01"></path>
</svg>