<svg width="45" height="45" viewBox="0 0 45 45" fill="none" xmlns="http://www.w3.org/2000/svg">
  <path d="M22.5 0C13.7767 0 6.67969 7.09699 6.67969 15.8203C6.67969 18.7676 7.4961 21.6439 9.04122 24.1393L21.5995 44.3768C21.84 44.7645 22.2638 45 22.7196 45C22.7232 45 22.7266 45 22.7301 45C23.1899 44.9964 23.6145 44.7536 23.8507 44.3591L36.0889 23.9256C37.5487 21.4829 38.3203 18.6802 38.3203 15.8203C38.3203 7.09699 31.2233 0 22.5 0ZM33.8261 22.5719L22.6997 41.1492L11.2823 22.7501C9.99615 20.6731 9.29883 18.2769 9.29883 15.8203C9.29883 8.55088 15.2306 2.61914 22.5 2.61914C29.7694 2.61914 35.6924 8.55088 35.6924 15.8203C35.6924 18.204 35.041 20.539 33.8261 22.5719Z" fill="#DF3F01"></path>
  <path d="M22.5 7.91016C18.1383 7.91016 14.5898 11.4587 14.5898 15.8203C14.5898 20.1541 18.0806 23.7305 22.5 23.7305C26.9739 23.7305 30.4102 20.1065 30.4102 15.8203C30.4102 11.4587 26.8617 7.91016 22.5 7.91016ZM22.5 21.1113C19.577 21.1113 17.209 18.7354 17.209 15.8203C17.209 12.9125 19.5922 10.5293 22.5 10.5293C25.4078 10.5293 27.7822 12.9125 27.7822 15.8203C27.7822 18.6928 25.4693 21.1113 22.5 21.1113Z" fill="#DF3F01"></path>
</svg>