<svg width="40" height="40" viewBox="0 0 40 40" fill="none" xmlns="http://www.w3.org/2000/svg">
<path d="M31.6109 24.7786C30.792 23.9259 29.8042 23.47 28.7574 23.47C27.719 23.47 26.7228 23.9175 25.8701 24.7701L23.2024 27.4294C22.9829 27.3112 22.7634 27.2015 22.5523 27.0917C22.2484 26.9398 21.9613 26.7963 21.7165 26.6443C19.2176 25.0572 16.9466 22.9888 14.7685 20.3126C13.7132 18.9787 13.0041 17.8559 12.4891 16.7162C13.1814 16.083 13.823 15.4245 14.4477 14.7914C14.6841 14.555 14.9205 14.3101 15.1569 14.0738C16.9297 12.3009 16.9297 10.0046 15.1569 8.23171L12.8521 5.92697C12.5904 5.66526 12.3203 5.39511 12.067 5.12495C11.5605 4.60153 11.0286 4.06123 10.4798 3.55469C9.66095 2.74423 8.68164 2.31367 7.65169 2.31367C6.62173 2.31367 5.62554 2.74423 4.78131 3.55469C4.77287 3.56313 4.77287 3.56313 4.76443 3.57157L1.89406 6.46727C0.813445 7.54788 0.197159 8.86488 0.0620825 10.3929C-0.140532 12.8581 0.585503 15.1544 1.14269 16.6571C2.51034 20.3464 4.55337 23.7655 7.60103 27.4294C11.2987 31.8447 15.7478 35.3314 20.8301 37.7881C22.7718 38.7083 25.3636 39.7974 28.2593 39.9831C28.4366 39.9915 28.6223 40 28.7911 40C30.7413 40 32.3791 39.2993 33.6623 37.9063C33.6708 37.8894 33.6877 37.881 33.6961 37.8641C34.1351 37.3322 34.6416 36.851 35.1735 36.336C35.5365 35.9899 35.908 35.6269 36.271 35.247C37.1068 34.3774 37.5458 33.3644 37.5458 32.326C37.5458 31.2791 37.0983 30.2745 36.2457 29.4303L31.6109 24.7786ZM34.6332 33.6683C34.6248 33.6683 34.6248 33.6767 34.6332 33.6683C34.3039 34.0229 33.9663 34.3437 33.6032 34.6982C33.0545 35.2217 32.4973 35.7704 31.9739 36.3867C31.1212 37.2985 30.1166 37.729 28.7996 37.729C28.6729 37.729 28.5379 37.729 28.4112 37.7206C25.9039 37.5602 23.5738 36.5809 21.8263 35.7451C17.0479 33.4319 12.8521 30.1479 9.36547 25.9858C6.48665 22.516 4.56181 19.308 3.28703 15.8635C2.5019 13.7614 2.21486 12.1236 2.3415 10.5787C2.42592 9.59092 2.80582 8.77201 3.50653 8.07131L6.38535 5.19249C6.79902 4.80415 7.23802 4.59309 7.66857 4.59309C8.20043 4.59309 8.63099 4.9139 8.90114 5.18405C8.90959 5.19249 8.91803 5.20093 8.92647 5.20938C9.44145 5.69058 9.9311 6.18868 10.4461 6.72054C10.7078 6.99069 10.9779 7.26085 11.2481 7.53944L13.5528 9.84418C14.4477 10.7391 14.4477 11.5664 13.5528 12.4613C13.308 12.7061 13.0716 12.9509 12.8268 13.1873C12.1176 13.9134 11.4423 14.5887 10.7078 15.2472C10.6909 15.2641 10.674 15.2726 10.6656 15.2894C9.93954 16.0155 10.0746 16.7246 10.2266 17.2058C10.235 17.2312 10.2435 17.2565 10.2519 17.2818C10.8513 18.7339 11.6955 20.1015 12.9788 21.7309L12.9872 21.7393C15.3173 24.6097 17.774 26.8469 20.4839 28.5607C20.8301 28.7802 21.1847 28.9575 21.5223 29.1263C21.8263 29.2783 22.1133 29.4218 22.3581 29.5738C22.3919 29.5907 22.4257 29.616 22.4594 29.6329C22.7465 29.7764 23.0166 29.8439 23.2952 29.8439C23.9959 29.8439 24.4349 29.4049 24.5784 29.2614L27.4657 26.3742C27.7527 26.0871 28.2086 25.741 28.7405 25.741C29.2639 25.741 29.6945 26.0702 29.9562 26.3573C29.9646 26.3657 29.9646 26.3657 29.9731 26.3742L34.6248 31.0258C35.4943 31.887 35.4943 32.7734 34.6332 33.6683Z" fill="#DF3F01"></path>
<path d="M21.6139 9.51505C23.8258 9.88651 25.835 10.9334 27.4391 12.5374C29.0431 14.1414 30.0815 16.1507 30.4614 18.3626C30.5543 18.9197 31.0355 19.3081 31.5842 19.3081C31.6518 19.3081 31.7109 19.2996 31.7784 19.2912C32.4031 19.1899 32.8168 18.5989 32.7155 17.9742C32.2596 15.298 30.9933 12.8582 29.06 10.9249C27.1267 8.99163 24.6869 7.72529 22.0107 7.26941C21.386 7.1681 20.8034 7.58177 20.6937 8.19806C20.5839 8.81434 20.9892 9.41375 21.6139 9.51505Z" fill="#DF3F01"></path>
<path d="M39.9513 17.6448C39.1999 13.238 37.1231 9.2279 33.9319 6.03672C30.7407 2.84554 26.7307 0.768738 22.3238 0.0173754C21.7075 -0.0923741 21.125 0.32974 21.0152 0.946026C20.9139 1.57075 21.3276 2.15327 21.9523 2.26302C25.8864 2.92996 29.4744 4.7957 32.3279 7.64075C35.1814 10.4942 37.0387 14.0822 37.7056 18.0163C37.7985 18.5735 38.2797 18.9618 38.8284 18.9618C38.896 18.9618 38.9551 18.9534 39.0226 18.945C39.6389 18.8521 40.061 18.2611 39.9513 17.6448Z" fill="#DF3F01"></path>
</svg>